<svg width="17" height="16" viewBox="0 0 17 16" fill="none" xmlns="http://www.w3.org/2000/svg">
<g clip-path="url(#clip0_353_115)">
<path d="M12.9041 12.6665H6.82482C5.94815 12.6665 5.17083 12.0992 4.93358 11.2865L2.87877 4.41917C2.80577 4.1705 2.56311 3.99984 2.28598 3.99984H0.675926C0.302139 3.99984 0 3.70117 0 3.33317C0 2.96517 0.302139 2.6665 0.675926 2.6665H2.28598C3.16266 2.6665 3.9393 3.23384 4.17655 4.0465L4.56115 5.33317H14.8994C15.3212 5.33317 15.7214 5.53117 15.9694 5.86317C16.2155 6.1925 16.2864 6.6045 16.1641 6.99384L14.7697 11.3592C14.4966 12.1472 13.7483 12.6665 12.9041 12.6665Z" fill="#181818"/>
<path d="M7.43388 16.0002C6.68834 16.0002 6.08203 15.4022 6.08203 14.6668C6.08203 13.9315 6.68834 13.3335 7.43388 13.3335C8.17943 13.3335 8.78573 13.9315 8.78573 14.6668C8.78573 15.4022 8.17943 16.0002 7.43388 16.0002Z" fill="#181818"/>
<path d="M12.1683 16.0002C11.4227 16.0002 10.8164 15.4022 10.8164 14.6668C10.8164 13.9315 11.4227 13.3335 12.1683 13.3335C12.9138 13.3335 13.5201 13.9315 13.5201 14.6668C13.5201 15.4022 12.9138 16.0002 12.1683 16.0002Z" fill="#181818"/>
</g>
<defs>
<clipPath id="clip0_353_115">
<rect width="16.2222" height="16" fill="white"/>
</clipPath>
</defs>
</svg>
