<svg width="16" height="16" viewBox="0 0 16 16" fill="none" xmlns="http://www.w3.org/2000/svg">
<path d="M12.7847 1.98206C11.5066 0.703906 9.80717 0 7.99961 0C6.19205 0 4.49261 0.703906 3.21448 1.98206C1.93633 3.26025 1.23242 4.95962 1.23242 6.76716C1.23242 10.4238 4.68986 13.4652 6.54733 15.0991C6.80545 15.3262 7.02836 15.5223 7.20595 15.6882C7.42845 15.896 7.71405 15.9999 7.99958 15.9999C8.28517 15.9999 8.5707 15.896 8.79324 15.6882C8.97083 15.5223 9.19374 15.3262 9.45186 15.0991C11.3093 13.4652 14.7668 10.4238 14.7668 6.76716C14.7667 4.95962 14.0629 3.26025 12.7847 1.98206ZM8.8328 14.3954C8.56902 14.6275 8.34124 14.8279 8.15342 15.0033C8.06714 15.0838 7.93202 15.0838 7.8457 15.0033C7.65792 14.8278 7.43011 14.6274 7.16633 14.3954C5.42008 12.8593 2.16961 9.99997 2.16961 6.76719C2.16961 3.55256 4.78489 0.937281 7.99955 0.937281C11.2142 0.937281 13.8295 3.55256 13.8295 6.76719C13.8295 9.99997 10.579 12.8593 8.8328 14.3954Z" fill="#2EB97E"/>
<path d="M7.99967 3.5293C6.35527 3.5293 5.01746 4.86708 5.01746 6.51148C5.01746 8.15589 6.35527 9.49367 7.99967 9.49367C9.64408 9.49367 10.9819 8.15589 10.9819 6.51148C10.9819 4.86708 9.64408 3.5293 7.99967 3.5293ZM7.99967 8.55639C6.87208 8.55639 5.95471 7.63902 5.95471 6.51145C5.95471 5.38389 6.87208 4.46652 7.99967 4.46652C9.12727 4.46652 10.0446 5.38389 10.0446 6.51145C10.0446 7.63902 9.12727 8.55639 7.99967 8.55639Z" fill="#2EB97E"/>
</svg>
