<svg width="18" height="12" viewBox="0 0 18 12" fill="none" xmlns="http://www.w3.org/2000/svg">
<path d="M16.8103 1.88541C16.6138 1.14634 16.035 0.564281 15.3 0.36675C13.9679 0.0078125 8.62602 0.0078125 8.62602 0.0078125C8.62602 0.0078125 3.28421 0.0078125 1.952 0.36675C1.21704 0.564313 0.638196 1.14634 0.441733 1.88541C0.0847778 3.225 0.0847778 6.01994 0.0847778 6.01994C0.0847778 6.01994 0.0847778 8.81487 0.441733 10.1545C0.638196 10.8935 1.21704 11.4513 1.952 11.6489C3.28421 12.0078 8.62602 12.0078 8.62602 12.0078C8.62602 12.0078 13.9678 12.0078 15.3 11.6489C16.035 11.4513 16.6138 10.8935 16.8103 10.1545C17.1673 8.81487 17.1673 6.01994 17.1673 6.01994C17.1673 6.01994 17.1673 3.225 16.8103 1.88541ZM6.87894 8.55753V3.48234L11.3437 6.02L6.87894 8.55753Z" fill="#2EB97E"/>
</svg>
